# xmcd
#
# Track frame offsets: 
#        150
#        12769
#        30180
#        43718
#        61715
#        76456
#        89831
#        105957
#        119471
#        130117
#        145998
#        158074
#
# Disc length: 2283 seconds
#
# Revision: 0
# Processed by: cddbd v1.5.2PL0 Copyright (c) Steve Scherf et al.
# Submitted via: ExactAudioCopy v1.3
#
DISCID=8e08e90c
DTITLE=Big Joe Maher and The Dynaflows - Midnight Rambler
DYEAR=1997
DGENRE=Blues
TTITLE0=Route 66
TTITLE1=Sweet Home Chicago
TTITLE2=Cross Road Blues
TTITLE3=Midnight Rambler
TTITLE4=Statesboro Blues
TTITLE5=Froggy Bottom
TTITLE6=Blue Monday Blues
TTITLE7=Let's Go Jumpin'
TTITLE8=Beehive Boogie
TTITLE9=Juice On The Loose
TTITLE10=Gangster Of Love
TTITLE11=Oye Como Va
EXTD=
EXTT0=
EXTT1=
EXTT2=
EXTT3=
EXTT4=
EXTT5=
EXTT6=
EXTT7=
EXTT8=
EXTT9=
EXTT10=
EXTT11=
PLAYORDER=
